<?xml version="1.0" standalone="no"?>
<!DOCTYPE svg PUBLIC "-//W3C//DTD SVG 20010904//EN"
 "http://www.w3.org/TR/2001/REC-SVG-20010904/DTD/svg10.dtd">
<svg version="1.0" xmlns="http://www.w3.org/2000/svg"
 width="290.000000pt" height="257.000000pt" viewBox="0 0 290.000000 257.000000"
 preserveAspectRatio="xMidYMid meet">

<g transform="translate(0.000000,257.000000) scale(0.100000,-0.100000)"
fill="#000000" stroke="none">
<path d="M1122 1760 c-60 -37 -72 -70 -72 -203 0 -67 5 -128 11 -140 6 -12
103 -114 215 -227 l203 -205 3 -218 3 -219 34 -30 c56 -50 74 -40 244 130
l147 148 0 93 0 92 206 207 c114 114 210 217 215 230 5 13 9 75 9 139 0 135
-12 169 -69 201 -38 22 -44 22 -577 22 -520 0 -540 -1 -572 -20z m1048 -213
l0 -62 -201 -200 c-110 -110 -207 -212 -215 -227 -7 -15 -17 -66 -20 -115 -6
-76 -10 -92 -32 -115 -14 -16 -29 -28 -34 -28 -4 0 -8 44 -8 98 0 53 -5 113
-10 132 -7 26 -62 88 -220 245 l-210 210 0 62 0 63 475 0 475 0 0 -63z"/>
</g>
</svg>
