<?xml version="1.0" standalone="no"?>
<!DOCTYPE svg PUBLIC "-//W3C//DTD SVG 20010904//EN"
 "http://www.w3.org/TR/2001/REC-SVG-20010904/DTD/svg10.dtd">
<svg version="1.0" xmlns="http://www.w3.org/2000/svg"
 width="221.000000pt" height="215.000000pt" viewBox="0 0 221.000000 215.000000"
 preserveAspectRatio="xMidYMid meet">

<g transform="translate(0.000000,215.000000) scale(0.100000,-0.100000)"
fill="#000000" stroke="none">
<path d="M603 1550 c-51 -31 -63 -65 -63 -185 0 -73 4 -114 14 -133 8 -15 96
-108 195 -207 l181 -180 0 -191 c0 -178 1 -193 21 -218 15 -20 29 -26 58 -26
34 0 47 10 169 133 l132 134 0 84 0 84 193 192 192 193 3 119 c4 135 -6 168
-61 201 -31 19 -54 20 -517 20 -463 0 -486 -1 -517 -20z m947 -188 l0 -57
-181 -180 c-99 -99 -187 -192 -194 -206 -8 -15 -17 -63 -21 -107 -6 -71 -10
-84 -35 -108 l-29 -28 0 95 c0 71 -5 104 -19 134 -12 24 -89 110 -200 220
l-181 180 0 51 c0 28 3 54 7 57 3 4 197 7 430 7 l423 0 0 -58z"/>
<path d="M2190 15 c-10 -12 -10 -15 4 -15 9 0 16 7 16 15 0 8 -2 15 -4 15 -2
0 -9 -7 -16 -15z"/>
</g>
</svg>
