<svg width="36" height="36" viewBox="0 0 36 36" fill="none" xmlns="http://www.w3.org/2000/svg">
<path d="M4.5 13.5H31.5M10.5 4.5V7.5M25.5 4.5V7.5M10.5 19.5H25.5V25.5H10.5V19.5ZM9.3 31.5H26.7C28.3801 31.5 29.2203 31.5 29.862 31.173C30.4265 30.8854 30.8854 30.4265 31.173 29.862C31.5 29.2203 31.5 28.3801 31.5 26.7V12.3C31.5 10.6198 31.5 9.77976 31.173 9.13803C30.8854 8.57354 30.4265 8.11459 29.862 7.82698C29.2203 7.5 28.3801 7.5 26.7 7.5H9.3C7.61985 7.5 6.77976 7.5 6.13803 7.82698C5.57354 8.11459 5.11459 8.57354 4.82698 9.13803C4.5 9.77976 4.5 10.6198 4.5 12.3V26.7C4.5 28.3801 4.5 29.2203 4.82698 29.862C5.11459 30.4265 5.57354 30.8854 6.13803 31.173C6.77976 31.5 7.61983 31.5 9.3 31.5Z" stroke="#004643" stroke-width="3" stroke-linecap="round" stroke-linejoin="round"/>
</svg>
