<svg width="30" height="30" viewBox="0 0 30 30" fill="none" xmlns="http://www.w3.org/2000/svg">
<g clip-path="url(#clip0_24_283)">
<path d="M29.4964 13.6565L24.9498 9.10989V3.85775C24.9498 2.90809 24.1802 2.13847 23.2292 2.13847C22.2803 2.13847 21.5107 2.90809 21.5107 3.85775V5.6709L18.1254 2.28544C16.4517 0.612603 13.5416 0.615571 11.8716 2.28847L0.503323 13.6565C-0.167774 14.329 -0.167774 15.417 0.503323 16.0884C1.17472 16.7606 2.26488 16.7606 2.93603 16.0884L14.3033 4.72003C14.6736 4.35166 15.3263 4.35166 15.6946 4.71894L27.0638 16.0884C27.4009 16.4246 27.8404 16.5918 28.2798 16.5918C28.7202 16.5918 29.1604 16.4244 29.4965 16.0884C30.1678 15.4171 30.1678 14.329 29.4964 13.6565Z" fill="#004643"/>
<path d="M15.5971 7.98364C15.2668 7.65354 14.732 7.65354 14.4027 7.98364L4.40314 17.9803C4.24527 18.1381 4.15576 18.3535 4.15576 18.5784V25.8696C4.15576 27.5805 5.54301 28.9677 7.25388 28.9677H12.2047V21.3005H17.7941V28.9677H22.7449C24.4557 28.9677 25.843 27.5805 25.843 25.8696V18.5784C25.843 18.3535 25.7543 18.1381 25.5956 17.9803L15.5971 7.98364Z" fill="#004643"/>
</g>
<defs>
<clipPath id="clip0_24_283">
<rect width="30" height="30" fill="white"/>
</clipPath>
</defs>
</svg>
