<svg width="10" height="10" viewBox="0 0 10 10" fill="none" xmlns="http://www.w3.org/2000/svg">
<g clip-path="url(#clip0_12_99)">
<mask id="path-1-inside-1_12_99" fill="white">
<path d="M9.07214 8.43563C8.80581 7.95519 8.39837 7.6207 8.0063 7.38416C7.61399 7.14775 7.2312 7.00705 7.00716 6.92301C6.83646 6.85961 6.65622 6.77738 6.53241 6.6902C6.47042 6.64715 6.42347 6.60303 6.39745 6.56715C6.37083 6.53037 6.36552 6.50777 6.3653 6.48984C6.3653 6.31908 6.3653 6.10557 6.3653 5.81982C6.38997 5.75746 6.41577 5.70662 6.44491 5.65938C6.49427 5.57832 6.55999 5.49641 6.62593 5.37318C6.68066 5.27045 6.72948 5.14111 6.76724 4.97186C6.80044 4.9557 6.83355 4.93701 6.86583 4.91443C6.96482 4.84609 7.04856 4.7465 7.11704 4.61627C7.18628 4.48543 7.24603 4.32139 7.30972 4.0992L7.30919 4.10068L7.30972 4.09904C7.34247 3.98377 7.35817 3.88252 7.35823 3.79041C7.35937 3.64238 7.31308 3.51408 7.23651 3.42748C7.20983 3.39684 7.18097 3.37365 7.15196 3.35361C7.16161 3.23967 7.17901 3.0885 7.19554 2.91416C7.21468 2.71186 7.23194 2.48053 7.23194 2.24098C7.2312 1.86191 7.19083 1.46164 7.03046 1.11623C6.95009 0.943965 6.83735 0.785488 6.68341 0.660332C6.54157 0.544746 6.36446 0.461895 6.15901 0.418242C6.01958 0.311328 5.88456 0.217734 5.71626 0.152676C5.53458 0.0822656 5.32487 0.049668 5.04786 0.0498242C4.96046 0.0498242 4.86589 0.0529492 4.76241 0.0592383C4.47323 0.0605469 4.23646 0.0957031 4.00782 0.0950977C3.84835 0.0949414 3.69097 0.0796875 3.50862 0.027793L3.41093 0L3.3331 0.0651953C3.09362 0.268555 2.96509 0.571641 2.88646 0.908379C2.80876 1.24662 2.78358 1.62686 2.78335 2.00383C2.78343 2.49578 2.82739 2.98174 2.86478 3.34645C2.83628 3.36498 2.80796 3.38637 2.7811 3.41492C2.69857 3.50137 2.64683 3.63504 2.64825 3.7901C2.64833 3.88205 2.66403 3.98328 2.69677 4.09842L2.69692 4.09902C2.782 4.39508 2.85894 4.58902 2.96302 4.73615C3.01489 4.80928 3.07517 4.86908 3.14066 4.91439C3.1728 4.93682 3.20569 4.95537 3.23874 4.9715C3.29802 5.2248 3.39784 5.40842 3.48345 5.54135C3.53159 5.61656 3.57413 5.67637 3.60044 5.72107C3.62564 5.76295 3.63312 5.78687 3.63462 5.79779C3.63462 6.09521 3.63462 6.31441 3.63462 6.48981C3.6347 6.50373 3.62923 6.52824 3.59962 6.56758C3.55671 6.62574 3.4631 6.6999 3.35089 6.76271C3.23888 6.82656 3.10946 6.88189 2.9962 6.92182C2.69124 7.02979 2.11263 7.24047 1.60034 7.65063C1.34421 7.85592 1.10376 8.11283 0.926944 8.43371C0.75005 8.7543 0.639015 9.13887 0.639405 9.58582C0.639405 9.66342 0.642706 9.74312 0.649503 9.82461L0.664151 10H9.33575L9.3504 9.82461C9.3572 9.74328 9.3605 9.66387 9.3605 9.58627C9.36087 9.13947 9.24954 8.75547 9.07214 8.43563ZM8.97636 9.61721H1.02355C1.02339 9.60689 1.0222 9.59598 1.0222 9.58582C1.02249 9.20137 1.11505 8.88633 1.26226 8.61836C1.48275 8.21732 1.83339 7.92125 2.18948 7.70652C2.54528 7.4918 2.90146 7.36098 3.12343 7.28277C3.29831 7.22088 3.50144 7.13129 3.67444 7.01123C3.76095 6.95082 3.84058 6.88277 3.90456 6.79891C3.96775 6.71607 4.01732 6.61096 4.01737 6.48982C4.01737 6.31113 4.01737 6.08789 4.01737 5.78166V5.7718L4.01632 5.76191C4.00593 5.66621 3.96788 5.5907 3.92952 5.52566C3.87067 5.42756 3.80452 5.34219 3.74403 5.23154C3.68378 5.12133 3.62763 4.98826 3.59429 4.8009L3.57491 4.69145L3.47025 4.65406C3.42239 4.63687 3.38816 4.62027 3.35929 4.60023C3.31683 4.57004 3.27751 4.52967 3.22757 4.4368C3.17837 4.34455 3.12433 4.2025 3.06503 3.99404V3.99391C3.03954 3.90508 3.03101 3.83779 3.03101 3.7901C3.03251 3.70814 3.05073 3.68887 3.06062 3.67645C3.07122 3.66449 3.09015 3.65537 3.11114 3.65072L3.27757 3.6135L3.2597 3.44393C3.22044 3.07189 3.1661 2.5351 3.1661 2.00381C3.16595 1.64479 3.19144 1.28846 3.25941 0.994336C3.31579 0.745957 3.40423 0.548594 3.51429 0.422988C3.6911 0.46334 3.85484 0.478008 4.0078 0.477871C4.27763 0.477285 4.51329 0.441074 4.77278 0.44168H4.77892L4.78542 0.441387C4.88269 0.43541 4.96972 0.432559 5.04784 0.432559C5.29694 0.432695 5.45224 0.461113 5.57829 0.509707C5.70419 0.558301 5.812 0.632324 5.95778 0.74582L5.99532 0.774961L6.04204 0.783184C6.21302 0.813828 6.33968 0.874707 6.44189 0.957383C6.59419 1.08088 6.69675 1.26316 6.76144 1.48926C6.82589 1.71445 6.84935 1.97852 6.84913 2.24094C6.84921 2.46195 6.83308 2.68174 6.81444 2.87809C6.79583 3.07471 6.77489 3.24621 6.76554 3.3802H6.76562C6.7639 3.40398 6.76181 3.42445 6.75941 3.4475L6.74243 3.61063L6.90101 3.65234C6.92126 3.65771 6.93726 3.66641 6.94743 3.67836C6.95692 3.69078 6.97419 3.7123 6.9754 3.79037C6.9754 3.83791 6.96689 3.90506 6.94169 3.99342L6.94153 3.99389C6.86267 4.2723 6.79202 4.43109 6.73198 4.51379C6.70185 4.55551 6.67599 4.57988 6.64712 4.60021C6.61825 4.62025 6.58401 4.63686 6.53618 4.65404L6.43151 4.69143L6.41214 4.80088C6.38933 4.9299 6.36191 5.02293 6.33296 5.0959C6.28929 5.20506 6.24241 5.27264 6.182 5.36191C6.1222 5.44998 6.05013 5.55959 5.99382 5.71676L5.98245 5.74816V5.78164C5.98245 6.08787 5.98245 6.31111 5.98245 6.48981C5.98224 6.60674 6.02792 6.71156 6.08907 6.79397C6.18185 6.9185 6.30864 7.00854 6.44569 7.08719C6.58304 7.1651 6.73249 7.22895 6.87296 7.28156C7.17007 7.39207 7.70577 7.59215 8.15882 7.9543C8.38523 8.13508 8.58968 8.35443 8.7372 8.62104C8.88456 8.88809 8.97733 9.20211 8.97763 9.58625C8.97771 9.59627 8.97651 9.60703 8.97636 9.61721Z"/>
</mask>
<path d="M9.07214 8.43563C8.80581 7.95519 8.39837 7.6207 8.0063 7.38416C7.61399 7.14775 7.2312 7.00705 7.00716 6.92301C6.83646 6.85961 6.65622 6.77738 6.53241 6.6902C6.47042 6.64715 6.42347 6.60303 6.39745 6.56715C6.37083 6.53037 6.36552 6.50777 6.3653 6.48984C6.3653 6.31908 6.3653 6.10557 6.3653 5.81982C6.38997 5.75746 6.41577 5.70662 6.44491 5.65938C6.49427 5.57832 6.55999 5.49641 6.62593 5.37318C6.68066 5.27045 6.72948 5.14111 6.76724 4.97186C6.80044 4.9557 6.83355 4.93701 6.86583 4.91443C6.96482 4.84609 7.04856 4.7465 7.11704 4.61627C7.18628 4.48543 7.24603 4.32139 7.30972 4.0992L7.30919 4.10068L7.30972 4.09904C7.34247 3.98377 7.35817 3.88252 7.35823 3.79041C7.35937 3.64238 7.31308 3.51408 7.23651 3.42748C7.20983 3.39684 7.18097 3.37365 7.15196 3.35361C7.16161 3.23967 7.17901 3.0885 7.19554 2.91416C7.21468 2.71186 7.23194 2.48053 7.23194 2.24098C7.2312 1.86191 7.19083 1.46164 7.03046 1.11623C6.95009 0.943965 6.83735 0.785488 6.68341 0.660332C6.54157 0.544746 6.36446 0.461895 6.15901 0.418242C6.01958 0.311328 5.88456 0.217734 5.71626 0.152676C5.53458 0.0822656 5.32487 0.049668 5.04786 0.0498242C4.96046 0.0498242 4.86589 0.0529492 4.76241 0.0592383C4.47323 0.0605469 4.23646 0.0957031 4.00782 0.0950977C3.84835 0.0949414 3.69097 0.0796875 3.50862 0.027793L3.41093 0L3.3331 0.0651953C3.09362 0.268555 2.96509 0.571641 2.88646 0.908379C2.80876 1.24662 2.78358 1.62686 2.78335 2.00383C2.78343 2.49578 2.82739 2.98174 2.86478 3.34645C2.83628 3.36498 2.80796 3.38637 2.7811 3.41492C2.69857 3.50137 2.64683 3.63504 2.64825 3.7901C2.64833 3.88205 2.66403 3.98328 2.69677 4.09842L2.69692 4.09902C2.782 4.39508 2.85894 4.58902 2.96302 4.73615C3.01489 4.80928 3.07517 4.86908 3.14066 4.91439C3.1728 4.93682 3.20569 4.95537 3.23874 4.9715C3.29802 5.2248 3.39784 5.40842 3.48345 5.54135C3.53159 5.61656 3.57413 5.67637 3.60044 5.72107C3.62564 5.76295 3.63312 5.78687 3.63462 5.79779C3.63462 6.09521 3.63462 6.31441 3.63462 6.48981C3.6347 6.50373 3.62923 6.52824 3.59962 6.56758C3.55671 6.62574 3.4631 6.6999 3.35089 6.76271C3.23888 6.82656 3.10946 6.88189 2.9962 6.92182C2.69124 7.02979 2.11263 7.24047 1.60034 7.65063C1.34421 7.85592 1.10376 8.11283 0.926944 8.43371C0.75005 8.7543 0.639015 9.13887 0.639405 9.58582C0.639405 9.66342 0.642706 9.74312 0.649503 9.82461L0.664151 10H9.33575L9.3504 9.82461C9.3572 9.74328 9.3605 9.66387 9.3605 9.58627C9.36087 9.13947 9.24954 8.75547 9.07214 8.43563ZM8.97636 9.61721H1.02355C1.02339 9.60689 1.0222 9.59598 1.0222 9.58582C1.02249 9.20137 1.11505 8.88633 1.26226 8.61836C1.48275 8.21732 1.83339 7.92125 2.18948 7.70652C2.54528 7.4918 2.90146 7.36098 3.12343 7.28277C3.29831 7.22088 3.50144 7.13129 3.67444 7.01123C3.76095 6.95082 3.84058 6.88277 3.90456 6.79891C3.96775 6.71607 4.01732 6.61096 4.01737 6.48982C4.01737 6.31113 4.01737 6.08789 4.01737 5.78166V5.7718L4.01632 5.76191C4.00593 5.66621 3.96788 5.5907 3.92952 5.52566C3.87067 5.42756 3.80452 5.34219 3.74403 5.23154C3.68378 5.12133 3.62763 4.98826 3.59429 4.8009L3.57491 4.69145L3.47025 4.65406C3.42239 4.63687 3.38816 4.62027 3.35929 4.60023C3.31683 4.57004 3.27751 4.52967 3.22757 4.4368C3.17837 4.34455 3.12433 4.2025 3.06503 3.99404V3.99391C3.03954 3.90508 3.03101 3.83779 3.03101 3.7901C3.03251 3.70814 3.05073 3.68887 3.06062 3.67645C3.07122 3.66449 3.09015 3.65537 3.11114 3.65072L3.27757 3.6135L3.2597 3.44393C3.22044 3.07189 3.1661 2.5351 3.1661 2.00381C3.16595 1.64479 3.19144 1.28846 3.25941 0.994336C3.31579 0.745957 3.40423 0.548594 3.51429 0.422988C3.6911 0.46334 3.85484 0.478008 4.0078 0.477871C4.27763 0.477285 4.51329 0.441074 4.77278 0.44168H4.77892L4.78542 0.441387C4.88269 0.43541 4.96972 0.432559 5.04784 0.432559C5.29694 0.432695 5.45224 0.461113 5.57829 0.509707C5.70419 0.558301 5.812 0.632324 5.95778 0.74582L5.99532 0.774961L6.04204 0.783184C6.21302 0.813828 6.33968 0.874707 6.44189 0.957383C6.59419 1.08088 6.69675 1.26316 6.76144 1.48926C6.82589 1.71445 6.84935 1.97852 6.84913 2.24094C6.84921 2.46195 6.83308 2.68174 6.81444 2.87809C6.79583 3.07471 6.77489 3.24621 6.76554 3.3802H6.76562C6.7639 3.40398 6.76181 3.42445 6.75941 3.4475L6.74243 3.61063L6.90101 3.65234C6.92126 3.65771 6.93726 3.66641 6.94743 3.67836C6.95692 3.69078 6.97419 3.7123 6.9754 3.79037C6.9754 3.83791 6.96689 3.90506 6.94169 3.99342L6.94153 3.99389C6.86267 4.2723 6.79202 4.43109 6.73198 4.51379C6.70185 4.55551 6.67599 4.57988 6.64712 4.60021C6.61825 4.62025 6.58401 4.63686 6.53618 4.65404L6.43151 4.69143L6.41214 4.80088C6.38933 4.9299 6.36191 5.02293 6.33296 5.0959C6.28929 5.20506 6.24241 5.27264 6.182 5.36191C6.1222 5.44998 6.05013 5.55959 5.99382 5.71676L5.98245 5.74816V5.78164C5.98245 6.08787 5.98245 6.31111 5.98245 6.48981C5.98224 6.60674 6.02792 6.71156 6.08907 6.79397C6.18185 6.9185 6.30864 7.00854 6.44569 7.08719C6.58304 7.1651 6.73249 7.22895 6.87296 7.28156C7.17007 7.39207 7.70577 7.59215 8.15882 7.9543C8.38523 8.13508 8.58968 8.35443 8.7372 8.62104C8.88456 8.88809 8.97733 9.20211 8.97763 9.58625C8.97771 9.59627 8.97651 9.60703 8.97636 9.61721Z" fill="black" stroke="#004643" stroke-width="12" mask="url(#path-1-inside-1_12_99)"/>
</g>
<defs>
<clipPath id="clip0_12_99">
<rect width="10" height="10" fill="white"/>
</clipPath>
</defs>
</svg>
