<svg width="18" height="18" viewBox="0 0 18 18" fill="none" xmlns="http://www.w3.org/2000/svg">
<path fill-rule="evenodd" clip-rule="evenodd" d="M3.75 7.125C3.75 4.57028 6.00745 2.25 9 2.25C11.9926 2.25 14.25 4.57028 14.25 7.125C14.25 8.73367 13.2658 10.5304 11.9704 12.1958C10.9468 13.512 9.80797 14.6497 9 15.4458C8.19203 14.6497 7.0532 13.512 6.02951 12.1958C4.73422 10.5304 3.75 8.73367 3.75 7.125ZM9 0.75C5.24255 0.75 2.25 3.67972 2.25 7.125C2.25 9.26632 3.51578 11.407 4.84549 13.1167C5.99615 14.5961 7.28955 15.868 8.09798 16.663C8.23733 16.8001 8.36235 16.923 8.46968 17.0303C8.6103 17.1709 8.8011 17.25 9 17.25C9.1989 17.25 9.3897 17.1709 9.53032 17.0303C9.63765 16.923 9.76267 16.8001 9.90202 16.663C10.7104 15.868 12.0038 14.5961 13.1546 13.1167C14.4842 11.407 15.75 9.26632 15.75 7.125C15.75 3.67972 12.7574 0.75 9 0.75ZM9 9.375C10.0355 9.375 10.875 8.53552 10.875 7.5C10.875 6.46447 10.0355 5.625 9 5.625C7.96448 5.625 7.125 6.46447 7.125 7.5C7.125 8.53552 7.96448 9.375 9 9.375Z" fill="#004643"/>
</svg>
