<svg width="26" height="26" viewBox="0 0 26 26" fill="none" xmlns="http://www.w3.org/2000/svg">
<g clip-path="url(#clip0_24_289)">
<path d="M2.96645 13.8036H17.0438C17.4931 13.8036 17.8563 13.4396 17.8563 12.9911C17.8563 12.5426 17.4931 12.1786 17.0438 12.1786H3.01682L5.95564 9.23975C6.27332 8.92287 6.27332 8.40775 5.95564 8.09088C5.63795 7.774 5.12364 7.774 4.80676 8.09088L0.00732422 13.0163L4.80676 17.9424C4.96601 18.1009 5.1732 18.1805 5.3812 18.1805C5.5892 18.1805 5.79639 18.1009 5.95564 17.9424C6.27332 17.6256 6.27332 17.1112 5.95564 16.7936L2.96645 13.8036ZM24.3661 0H10.5536C9.65576 0 8.92857 0.727188 8.92857 1.625V8.9375H10.5641V2.61625C10.5641 2.0735 11.0045 1.63312 11.5473 1.63312H23.3472C23.8908 1.63312 24.3303 2.0735 24.3303 2.61625L24.3563 23.3935C24.3563 23.9363 23.9168 24.3766 23.3732 24.3766H11.5489C11.0061 24.3766 10.5658 23.9363 10.5658 23.3935V17.0365L8.9302 17.0389V24.3758C8.9302 25.2736 9.65739 26.0008 10.5552 26.0008H24.3669C25.2647 26.0008 25.9927 25.2736 25.9927 24.3758V1.62581C25.9927 0.728 25.2647 0.0008125 24.3677 0.0008125L24.3661 0Z" fill="#004643"/>
</g>
<defs>
<clipPath id="clip0_24_289">
<rect width="26" height="26" fill="white"/>
</clipPath>
</defs>
</svg>
