<svg width="20" height="20" viewBox="0 0 20 20" fill="none" xmlns="http://www.w3.org/2000/svg">
<mask id="path-1-inside-1_9_262" fill="white">
<path d="M18.1444 16.8713C17.6117 15.9104 16.7969 15.2414 16.0127 14.7683C15.2281 14.2955 14.4625 14.0141 14.0144 13.846C13.673 13.7192 13.3126 13.5548 13.0649 13.3804C12.941 13.2943 12.8471 13.2061 12.795 13.1343C12.7418 13.0607 12.7312 13.0155 12.7307 12.9797C12.7307 12.6382 12.7307 12.2111 12.7307 11.6396C12.7801 11.5149 12.8317 11.4132 12.8899 11.3188C12.9887 11.1566 13.1201 10.9928 13.252 10.7464C13.3614 10.5409 13.4591 10.2822 13.5346 9.94371C13.601 9.91141 13.6672 9.87402 13.7318 9.82887C13.9298 9.69219 14.0973 9.49301 14.2342 9.23254C14.3727 8.97086 14.4922 8.64277 14.6196 8.1984L14.6185 8.20137L14.6196 8.19809C14.6851 7.96754 14.7165 7.76504 14.7166 7.58082C14.7189 7.28477 14.6263 7.02816 14.4732 6.85496C14.4198 6.79367 14.3621 6.7473 14.3041 6.70723C14.3233 6.47934 14.3582 6.17699 14.3912 5.82832C14.4295 5.42371 14.464 4.96105 14.464 4.48195C14.4625 3.72383 14.3818 2.92328 14.061 2.23246C13.9003 1.88793 13.6748 1.57098 13.3669 1.32066C13.0833 1.08949 12.729 0.923789 12.3182 0.836484C12.0393 0.622656 11.7692 0.435469 11.4326 0.305352C11.0693 0.164531 10.6499 0.0993359 10.0958 0.0996484C9.92104 0.0996484 9.7319 0.105898 9.52495 0.118477C8.94659 0.121094 8.47303 0.191406 8.01577 0.190195C7.69682 0.189883 7.38206 0.159375 7.01737 0.0555859L6.82198 0L6.66632 0.130391C6.18737 0.537109 5.9303 1.14328 5.77303 1.81676C5.61764 2.49324 5.56729 3.25371 5.56682 4.00766C5.56698 4.99156 5.65491 5.96348 5.72967 6.69289C5.67268 6.72996 5.61604 6.77273 5.56233 6.82984C5.39725 7.00273 5.29378 7.27008 5.29663 7.58019C5.29678 7.7641 5.32819 7.96656 5.39366 8.19684L5.39397 8.19805C5.56413 8.79016 5.718 9.17805 5.92616 9.4723C6.02991 9.61855 6.15046 9.73816 6.28143 9.82879C6.34573 9.87363 6.41151 9.91074 6.4776 9.94301C6.59616 10.4496 6.79581 10.8168 6.96702 11.0827C7.06331 11.2331 7.14839 11.3527 7.201 11.4421C7.25139 11.5259 7.26635 11.5737 7.26936 11.5956C7.26936 12.1904 7.26936 12.6288 7.26936 12.9796C7.26952 13.0075 7.25858 13.0565 7.19936 13.1352C7.11354 13.2515 6.92632 13.3998 6.7019 13.5254C6.47788 13.6531 6.21905 13.7638 5.99253 13.8436C5.3826 14.0596 4.22538 14.4809 3.20081 15.3013C2.68854 15.7118 2.20764 16.2257 1.85401 16.8674C1.50022 17.5086 1.27815 18.2777 1.27893 19.1716C1.27893 19.3268 1.28553 19.4862 1.29913 19.6492L1.32842 20H18.6716L18.7009 19.6492C18.7145 19.4866 18.7211 19.3277 18.7211 19.1725C18.7219 18.2789 18.4992 17.5109 18.1444 16.8713ZM17.9528 19.2344H2.04721C2.0469 19.2138 2.04452 19.192 2.04452 19.1716C2.0451 18.4027 2.23022 17.7727 2.52464 17.2367C2.96561 16.4346 3.6669 15.8425 4.37909 15.413C5.09069 14.9836 5.80303 14.722 6.24698 14.5655C6.59675 14.4418 7.003 14.2626 7.34901 14.0225C7.52202 13.9016 7.68128 13.7655 7.80925 13.5978C7.93561 13.4321 8.03475 13.2219 8.03487 12.9796C8.03487 12.6223 8.03487 12.1758 8.03487 11.5633V11.5436L8.03276 11.5238C8.01198 11.3324 7.93589 11.1814 7.85917 11.0513C7.74147 10.8551 7.60917 10.6844 7.48819 10.4631C7.36768 10.2427 7.25538 9.97652 7.1887 9.6018L7.14995 9.38289L6.94061 9.30812C6.84491 9.27375 6.77643 9.24055 6.7187 9.20047C6.63378 9.14008 6.55514 9.05934 6.45526 8.87359C6.35686 8.6891 6.24878 8.405 6.13018 7.98809V7.98781C6.07921 7.81016 6.06214 7.67559 6.06214 7.58019C6.06514 7.41629 6.10159 7.37773 6.12135 7.35289C6.14257 7.32898 6.18042 7.31074 6.22241 7.30145L6.55526 7.22699L6.51952 6.88785C6.441 6.14379 6.33233 5.0702 6.33233 4.00762C6.33202 3.28957 6.383 2.57691 6.51893 1.98867C6.63171 1.49191 6.80858 1.09719 7.0287 0.845977C7.38233 0.92668 7.70979 0.956016 8.01573 0.955742C8.55538 0.95457 9.02671 0.882148 9.54569 0.883359H9.55796L9.57096 0.882773C9.7655 0.87082 9.93956 0.865117 10.0958 0.865117C10.594 0.865391 10.9046 0.922227 11.1567 1.01941C11.4085 1.1166 11.6241 1.26465 11.9157 1.49164L11.9908 1.54992L12.0842 1.56637C12.4262 1.62766 12.6795 1.74941 12.8839 1.91477C13.1885 2.16176 13.3936 2.52633 13.523 2.97852C13.6519 3.42891 13.6988 3.95703 13.6984 4.48187C13.6985 4.92391 13.6663 5.36348 13.629 5.75617C13.5918 6.14941 13.5499 6.49242 13.5312 6.76039H13.5314C13.5279 6.80797 13.5237 6.84891 13.5189 6.895L13.485 7.22125L13.8021 7.30469C13.8426 7.31543 13.8746 7.33281 13.895 7.35672C13.914 7.38156 13.9485 7.42461 13.9509 7.58074C13.9509 7.67582 13.9339 7.81012 13.8835 7.98684L13.8832 7.98777C13.7255 8.54461 13.5842 8.86219 13.4641 9.02758C13.4038 9.11102 13.3521 9.15977 13.2944 9.20043C13.2366 9.24051 13.1682 9.27371 13.0725 9.30809L12.8632 9.38285L12.8244 9.60176C12.7788 9.8598 12.7239 10.0459 12.666 10.1918C12.5787 10.4101 12.4849 10.5453 12.3641 10.7238C12.2445 10.9 12.1004 11.1192 11.9878 11.4335L11.965 11.4963V11.5633C11.965 12.1757 11.965 12.6222 11.965 12.9796C11.9646 13.2135 12.056 13.4231 12.1783 13.5879C12.3638 13.837 12.6174 14.0171 12.8915 14.1744C13.1662 14.3302 13.4651 14.4579 13.746 14.5631C14.3403 14.7841 15.4117 15.1843 16.3178 15.9086C16.7706 16.2702 17.1795 16.7089 17.4745 17.2421C17.7692 17.7762 17.9548 18.4042 17.9554 19.1725C17.9555 19.1925 17.9532 19.2141 17.9528 19.2344Z"/>
</mask>
<path d="M18.1444 16.8713C17.6117 15.9104 16.7969 15.2414 16.0127 14.7683C15.2281 14.2955 14.4625 14.0141 14.0144 13.846C13.673 13.7192 13.3126 13.5548 13.0649 13.3804C12.941 13.2943 12.8471 13.2061 12.795 13.1343C12.7418 13.0607 12.7312 13.0155 12.7307 12.9797C12.7307 12.6382 12.7307 12.2111 12.7307 11.6396C12.7801 11.5149 12.8317 11.4132 12.8899 11.3188C12.9887 11.1566 13.1201 10.9928 13.252 10.7464C13.3614 10.5409 13.4591 10.2822 13.5346 9.94371C13.601 9.91141 13.6672 9.87402 13.7318 9.82887C13.9298 9.69219 14.0973 9.49301 14.2342 9.23254C14.3727 8.97086 14.4922 8.64277 14.6196 8.1984L14.6185 8.20137L14.6196 8.19809C14.6851 7.96754 14.7165 7.76504 14.7166 7.58082C14.7189 7.28477 14.6263 7.02816 14.4732 6.85496C14.4198 6.79367 14.3621 6.7473 14.3041 6.70723C14.3233 6.47934 14.3582 6.17699 14.3912 5.82832C14.4295 5.42371 14.464 4.96105 14.464 4.48195C14.4625 3.72383 14.3818 2.92328 14.061 2.23246C13.9003 1.88793 13.6748 1.57098 13.3669 1.32066C13.0833 1.08949 12.729 0.923789 12.3182 0.836484C12.0393 0.622656 11.7692 0.435469 11.4326 0.305352C11.0693 0.164531 10.6499 0.0993359 10.0958 0.0996484C9.92104 0.0996484 9.7319 0.105898 9.52495 0.118477C8.94659 0.121094 8.47303 0.191406 8.01577 0.190195C7.69682 0.189883 7.38206 0.159375 7.01737 0.0555859L6.82198 0L6.66632 0.130391C6.18737 0.537109 5.9303 1.14328 5.77303 1.81676C5.61764 2.49324 5.56729 3.25371 5.56682 4.00766C5.56698 4.99156 5.65491 5.96348 5.72967 6.69289C5.67268 6.72996 5.61604 6.77273 5.56233 6.82984C5.39725 7.00273 5.29378 7.27008 5.29663 7.58019C5.29678 7.7641 5.32819 7.96656 5.39366 8.19684L5.39397 8.19805C5.56413 8.79016 5.718 9.17805 5.92616 9.4723C6.02991 9.61855 6.15046 9.73816 6.28143 9.82879C6.34573 9.87363 6.41151 9.91074 6.4776 9.94301C6.59616 10.4496 6.79581 10.8168 6.96702 11.0827C7.06331 11.2331 7.14839 11.3527 7.201 11.4421C7.25139 11.5259 7.26635 11.5737 7.26936 11.5956C7.26936 12.1904 7.26936 12.6288 7.26936 12.9796C7.26952 13.0075 7.25858 13.0565 7.19936 13.1352C7.11354 13.2515 6.92632 13.3998 6.7019 13.5254C6.47788 13.6531 6.21905 13.7638 5.99253 13.8436C5.3826 14.0596 4.22538 14.4809 3.20081 15.3013C2.68854 15.7118 2.20764 16.2257 1.85401 16.8674C1.50022 17.5086 1.27815 18.2777 1.27893 19.1716C1.27893 19.3268 1.28553 19.4862 1.29913 19.6492L1.32842 20H18.6716L18.7009 19.6492C18.7145 19.4866 18.7211 19.3277 18.7211 19.1725C18.7219 18.2789 18.4992 17.5109 18.1444 16.8713ZM17.9528 19.2344H2.04721C2.0469 19.2138 2.04452 19.192 2.04452 19.1716C2.0451 18.4027 2.23022 17.7727 2.52464 17.2367C2.96561 16.4346 3.6669 15.8425 4.37909 15.413C5.09069 14.9836 5.80303 14.722 6.24698 14.5655C6.59675 14.4418 7.003 14.2626 7.34901 14.0225C7.52202 13.9016 7.68128 13.7655 7.80925 13.5978C7.93561 13.4321 8.03475 13.2219 8.03487 12.9796C8.03487 12.6223 8.03487 12.1758 8.03487 11.5633V11.5436L8.03276 11.5238C8.01198 11.3324 7.93589 11.1814 7.85917 11.0513C7.74147 10.8551 7.60917 10.6844 7.48819 10.4631C7.36768 10.2427 7.25538 9.97652 7.1887 9.6018L7.14995 9.38289L6.94061 9.30812C6.84491 9.27375 6.77643 9.24055 6.7187 9.20047C6.63378 9.14008 6.55514 9.05934 6.45526 8.87359C6.35686 8.6891 6.24878 8.405 6.13018 7.98809V7.98781C6.07921 7.81016 6.06214 7.67559 6.06214 7.58019C6.06514 7.41629 6.10159 7.37773 6.12135 7.35289C6.14257 7.32898 6.18042 7.31074 6.22241 7.30145L6.55526 7.22699L6.51952 6.88785C6.441 6.14379 6.33233 5.0702 6.33233 4.00762C6.33202 3.28957 6.383 2.57691 6.51893 1.98867C6.63171 1.49191 6.80858 1.09719 7.0287 0.845977C7.38233 0.92668 7.70979 0.956016 8.01573 0.955742C8.55538 0.95457 9.02671 0.882148 9.54569 0.883359H9.55796L9.57096 0.882773C9.7655 0.87082 9.93956 0.865117 10.0958 0.865117C10.594 0.865391 10.9046 0.922227 11.1567 1.01941C11.4085 1.1166 11.6241 1.26465 11.9157 1.49164L11.9908 1.54992L12.0842 1.56637C12.4262 1.62766 12.6795 1.74941 12.8839 1.91477C13.1885 2.16176 13.3936 2.52633 13.523 2.97852C13.6519 3.42891 13.6988 3.95703 13.6984 4.48187C13.6985 4.92391 13.6663 5.36348 13.629 5.75617C13.5918 6.14941 13.5499 6.49242 13.5312 6.76039H13.5314C13.5279 6.80797 13.5237 6.84891 13.5189 6.895L13.485 7.22125L13.8021 7.30469C13.8426 7.31543 13.8746 7.33281 13.895 7.35672C13.914 7.38156 13.9485 7.42461 13.9509 7.58074C13.9509 7.67582 13.9339 7.81012 13.8835 7.98684L13.8832 7.98777C13.7255 8.54461 13.5842 8.86219 13.4641 9.02758C13.4038 9.11102 13.3521 9.15977 13.2944 9.20043C13.2366 9.24051 13.1682 9.27371 13.0725 9.30809L12.8632 9.38285L12.8244 9.60176C12.7788 9.8598 12.7239 10.0459 12.666 10.1918C12.5787 10.4101 12.4849 10.5453 12.3641 10.7238C12.2445 10.9 12.1004 11.1192 11.9878 11.4335L11.965 11.4963V11.5633C11.965 12.1757 11.965 12.6222 11.965 12.9796C11.9646 13.2135 12.056 13.4231 12.1783 13.5879C12.3638 13.837 12.6174 14.0171 12.8915 14.1744C13.1662 14.3302 13.4651 14.4579 13.746 14.5631C14.3403 14.7841 15.4117 15.1843 16.3178 15.9086C16.7706 16.2702 17.1795 16.7089 17.4745 17.2421C17.7692 17.7762 17.9548 18.4042 17.9554 19.1725C17.9555 19.1925 17.9532 19.2141 17.9528 19.2344Z" fill="black" stroke="#004643" stroke-width="12" mask="url(#path-1-inside-1_9_262)"/>
</svg>
