<svg width="25" height="25" viewBox="0 0 25 25" fill="none" xmlns="http://www.w3.org/2000/svg">
<path fill-rule="evenodd" clip-rule="evenodd" d="M5.20833 9.89585C5.20833 6.34763 8.34368 3.12502 12.5 3.12502C16.6564 3.12502 19.7917 6.34763 19.7917 9.89585C19.7917 12.1301 18.4247 14.6256 16.6256 16.9387C15.2039 18.7667 13.6222 20.3468 12.5 21.4525C11.3778 20.3468 9.79611 18.7667 8.37432 16.9387C6.5753 14.6256 5.20833 12.1301 5.20833 9.89585ZM12.5 1.04169C7.28132 1.04169 3.125 5.11074 3.125 9.89585C3.125 12.8699 4.88303 15.8431 6.72984 18.2176C8.32799 20.2724 10.1244 22.039 11.2472 23.143C11.4407 23.3335 11.6144 23.5042 11.7634 23.6532C11.9587 23.8486 12.2238 23.9584 12.5 23.9584C12.7762 23.9584 13.0412 23.8486 13.2366 23.6532C13.3856 23.5042 13.5593 23.3335 13.7528 23.1431C14.8755 22.039 16.672 20.2724 18.2702 18.2176C20.117 15.8431 21.875 12.8699 21.875 9.89585C21.875 5.11074 17.7186 1.04169 12.5 1.04169ZM12.5 13.0209C13.9382 13.0209 15.1042 11.8549 15.1042 10.4167C15.1042 8.97845 13.9382 7.81252 12.5 7.81252C11.0618 7.81252 9.89583 8.97845 9.89583 10.4167C9.89583 11.8549 11.0618 13.0209 12.5 13.0209Z" fill="#004643"/>
</svg>
